<svg xmlns="http://www.w3.org/2000/svg" viewBox="0 0 512 512">
  <defs>
    <linearGradient id="bg" x1="0%" y1="0%" x2="100%" y2="100%">
      <stop offset="0%" stop-color="#1e3a8a"/>
      <stop offset="55%" stop-color="#0e7490"/>
      <stop offset="100%" stop-color="#0891b2"/>
    </linearGradient>
    <linearGradient id="body" x1="0%" y1="0%" x2="100%" y2="100%">
      <stop offset="0%" stop-color="#eaf4fb"/>
      <stop offset="100%" stop-color="#bfe0f4"/>
    </linearGradient>
    <filter id="soft" x="-30%" y="-30%" width="160%" height="160%">
      <feDropShadow dx="0" dy="6" stdDeviation="10" flood-color="#04121f" flood-opacity="0.35"/>
    </filter>
    <clipPath id="arrowClip"><path d="
    M 130 110.0
    L 560 110.0
    L 560 30.0
    L 800 300
    L 560 570.0
    L 560 490.0
    L 130 490.0
    Q 176.0 300 130 110.0
    Z
    "/></clipPath>
  </defs>

  <rect x="0" y="0" width="512" height="512" rx="108" fill="url(#bg)"/>
  <rect x="0" y="0" width="512" height="512" rx="108" fill="none"
        stroke="#ffffff" stroke-opacity="0.08" stroke-width="2"/>

  <g transform="translate(-49.37,58.99) scale(0.65672)">
    <g filter="url(#soft)">
      <path d="
    M 130 92.89999999999998
    L 560 92.89999999999998
    L 560 5.699999999999989
    L 800 300
    L 560 594.3
    L 560 507.1
    L 130 507.1
    Q 180.14 300 130 92.89999999999998
    Z
    " fill="none" stroke="#cfe7f7" stroke-width="8" stroke-linejoin="round"/>
      <path d="
    M 130 110.0
    L 560 110.0
    L 560 30.0
    L 800 300
    L 560 570.0
    L 560 490.0
    L 130 490.0
    Q 176.0 300 130 110.0
    Z
    " fill="url(#body)" stroke="#04121f" stroke-width="16" stroke-linejoin="round"/>
    </g>
    <g clip-path="url(#arrowClip)">
      <rect x="286.0" y="136.0" width="328" height="328" rx="18" fill="#f4f9fc"/>
<rect x="300.00" y="150.00" width="9.72" height="9.72" fill="#0b2545"/>
<rect x="310.34" y="150.00" width="9.72" height="9.72" fill="#0b2545"/>
<rect x="320.69" y="150.00" width="9.72" height="9.72" fill="#0b2545"/>
<rect x="331.03" y="150.00" width="9.72" height="9.72" fill="#0b2545"/>
<rect x="341.38" y="150.00" width="9.72" height="9.72" fill="#0b2545"/>
<rect x="351.72" y="150.00" width="9.72" height="9.72" fill="#0b2545"/>
<rect x="362.07" y="150.00" width="9.72" height="9.72" fill="#0b2545"/>
<rect x="382.76" y="150.00" width="9.72" height="9.72" fill="#0b2545"/>
<rect x="393.10" y="150.00" width="9.72" height="9.72" fill="#0b2545"/>
<rect x="424.14" y="150.00" width="9.72" height="9.72" fill="#0b2545"/>
<rect x="444.83" y="150.00" width="9.72" height="9.72" fill="#0b2545"/>
<rect x="486.21" y="150.00" width="9.72" height="9.72" fill="#0b2545"/>
<rect x="506.90" y="150.00" width="9.72" height="9.72" fill="#0b2545"/>
<rect x="527.59" y="150.00" width="9.72" height="9.72" fill="#0b2545"/>
<rect x="537.93" y="150.00" width="9.72" height="9.72" fill="#0b2545"/>
<rect x="548.28" y="150.00" width="9.72" height="9.72" fill="#0b2545"/>
<rect x="558.62" y="150.00" width="9.72" height="9.72" fill="#0b2545"/>
<rect x="568.97" y="150.00" width="9.72" height="9.72" fill="#0b2545"/>
<rect x="579.31" y="150.00" width="9.72" height="9.72" fill="#0b2545"/>
<rect x="589.66" y="150.00" width="9.72" height="9.72" fill="#0b2545"/>
<rect x="300.00" y="160.34" width="9.72" height="9.72" fill="#0b2545"/>
<rect x="362.07" y="160.34" width="9.72" height="9.72" fill="#0b2545"/>
<rect x="382.76" y="160.34" width="9.72" height="9.72" fill="#0b2545"/>
<rect x="393.10" y="160.34" width="9.72" height="9.72" fill="#0b2545"/>
<rect x="413.79" y="160.34" width="9.72" height="9.72" fill="#0b2545"/>
<rect x="424.14" y="160.34" width="9.72" height="9.72" fill="#0b2545"/>
<rect x="444.83" y="160.34" width="9.72" height="9.72" fill="#0b2545"/>
<rect x="455.17" y="160.34" width="9.72" height="9.72" fill="#0b2545"/>
<rect x="475.86" y="160.34" width="9.72" height="9.72" fill="#0b2545"/>
<rect x="486.21" y="160.34" width="9.72" height="9.72" fill="#0b2545"/>
<rect x="496.55" y="160.34" width="9.72" height="9.72" fill="#0b2545"/>
<rect x="527.59" y="160.34" width="9.72" height="9.72" fill="#0b2545"/>
<rect x="589.66" y="160.34" width="9.72" height="9.72" fill="#0b2545"/>
<rect x="300.00" y="170.69" width="9.72" height="9.72" fill="#0b2545"/>
<rect x="320.69" y="170.69" width="9.72" height="9.72" fill="#0b2545"/>
<rect x="331.03" y="170.69" width="9.72" height="9.72" fill="#0b2545"/>
<rect x="341.38" y="170.69" width="9.72" height="9.72" fill="#0b2545"/>
<rect x="362.07" y="170.69" width="9.72" height="9.72" fill="#0b2545"/>
<rect x="382.76" y="170.69" width="9.72" height="9.72" fill="#0b2545"/>
<rect x="393.10" y="170.69" width="9.72" height="9.72" fill="#0b2545"/>
<rect x="403.45" y="170.69" width="9.72" height="9.72" fill="#0b2545"/>
<rect x="413.79" y="170.69" width="9.72" height="9.72" fill="#0b2545"/>
<rect x="434.48" y="170.69" width="9.72" height="9.72" fill="#0b2545"/>
<rect x="455.17" y="170.69" width="9.72" height="9.72" fill="#0b2545"/>
<rect x="496.55" y="170.69" width="9.72" height="9.72" fill="#0b2545"/>
<rect x="506.90" y="170.69" width="9.72" height="9.72" fill="#0b2545"/>
<rect x="527.59" y="170.69" width="9.72" height="9.72" fill="#0b2545"/>
<rect x="548.28" y="170.69" width="9.72" height="9.72" fill="#0b2545"/>
<rect x="558.62" y="170.69" width="9.72" height="9.72" fill="#0b2545"/>
<rect x="568.97" y="170.69" width="9.72" height="9.72" fill="#0b2545"/>
<rect x="589.66" y="170.69" width="9.72" height="9.72" fill="#0b2545"/>
<rect x="300.00" y="181.03" width="9.72" height="9.72" fill="#0b2545"/>
<rect x="320.69" y="181.03" width="9.72" height="9.72" fill="#0b2545"/>
<rect x="331.03" y="181.03" width="9.72" height="9.72" fill="#0b2545"/>
<rect x="341.38" y="181.03" width="9.72" height="9.72" fill="#0b2545"/>
<rect x="362.07" y="181.03" width="9.72" height="9.72" fill="#0b2545"/>
<rect x="393.10" y="181.03" width="9.72" height="9.72" fill="#0b2545"/>
<rect x="413.79" y="181.03" width="9.72" height="9.72" fill="#0b2545"/>
<rect x="424.14" y="181.03" width="9.72" height="9.72" fill="#0b2545"/>
<rect x="434.48" y="181.03" width="9.72" height="9.72" fill="#0b2545"/>
<rect x="444.83" y="181.03" width="9.72" height="9.72" fill="#0b2545"/>
<rect x="455.17" y="181.03" width="9.72" height="9.72" fill="#0b2545"/>
<rect x="465.52" y="181.03" width="9.72" height="9.72" fill="#0b2545"/>
<rect x="475.86" y="181.03" width="9.72" height="9.72" fill="#0b2545"/>
<rect x="496.55" y="181.03" width="9.72" height="9.72" fill="#0b2545"/>
<rect x="527.59" y="181.03" width="9.72" height="9.72" fill="#0b2545"/>
<rect x="548.28" y="181.03" width="9.72" height="9.72" fill="#0b2545"/>
<rect x="558.62" y="181.03" width="9.72" height="9.72" fill="#0b2545"/>
<rect x="568.97" y="181.03" width="9.72" height="9.72" fill="#0b2545"/>
<rect x="589.66" y="181.03" width="9.72" height="9.72" fill="#0b2545"/>
<rect x="300.00" y="191.38" width="9.72" height="9.72" fill="#0b2545"/>
<rect x="320.69" y="191.38" width="9.72" height="9.72" fill="#0b2545"/>
<rect x="331.03" y="191.38" width="9.72" height="9.72" fill="#0b2545"/>
<rect x="341.38" y="191.38" width="9.72" height="9.72" fill="#0b2545"/>
<rect x="362.07" y="191.38" width="9.72" height="9.72" fill="#0b2545"/>
<rect x="413.79" y="191.38" width="9.72" height="9.72" fill="#0b2545"/>
<rect x="434.48" y="191.38" width="9.72" height="9.72" fill="#0b2545"/>
<rect x="444.83" y="191.38" width="9.72" height="9.72" fill="#0b2545"/>
<rect x="455.17" y="191.38" width="9.72" height="9.72" fill="#0b2545"/>
<rect x="486.21" y="191.38" width="9.72" height="9.72" fill="#0b2545"/>
<rect x="496.55" y="191.38" width="9.72" height="9.72" fill="#0b2545"/>
<rect x="506.90" y="191.38" width="9.72" height="9.72" fill="#0b2545"/>
<rect x="527.59" y="191.38" width="9.72" height="9.72" fill="#0b2545"/>
<rect x="548.28" y="191.38" width="9.72" height="9.72" fill="#0b2545"/>
<rect x="558.62" y="191.38" width="9.72" height="9.72" fill="#0b2545"/>
<rect x="568.97" y="191.38" width="9.72" height="9.72" fill="#0b2545"/>
<rect x="589.66" y="191.38" width="9.72" height="9.72" fill="#0b2545"/>
<rect x="300.00" y="201.72" width="9.72" height="9.72" fill="#0b2545"/>
<rect x="362.07" y="201.72" width="9.72" height="9.72" fill="#0b2545"/>
<rect x="382.76" y="201.72" width="9.72" height="9.72" fill="#0b2545"/>
<rect x="424.14" y="201.72" width="9.72" height="9.72" fill="#0b2545"/>
<rect x="434.48" y="201.72" width="9.72" height="9.72" fill="#0b2545"/>
<rect x="444.83" y="201.72" width="9.72" height="9.72" fill="#0b2545"/>
<rect x="486.21" y="201.72" width="9.72" height="9.72" fill="#0b2545"/>
<rect x="527.59" y="201.72" width="9.72" height="9.72" fill="#0b2545"/>
<rect x="589.66" y="201.72" width="9.72" height="9.72" fill="#0b2545"/>
<rect x="300.00" y="212.07" width="9.72" height="9.72" fill="#0b2545"/>
<rect x="310.34" y="212.07" width="9.72" height="9.72" fill="#0b2545"/>
<rect x="320.69" y="212.07" width="9.72" height="9.72" fill="#0b2545"/>
<rect x="331.03" y="212.07" width="9.72" height="9.72" fill="#0b2545"/>
<rect x="341.38" y="212.07" width="9.72" height="9.72" fill="#0b2545"/>
<rect x="351.72" y="212.07" width="9.72" height="9.72" fill="#0b2545"/>
<rect x="362.07" y="212.07" width="9.72" height="9.72" fill="#0b2545"/>
<rect x="382.76" y="212.07" width="9.72" height="9.72" fill="#0b2545"/>
<rect x="403.45" y="212.07" width="9.72" height="9.72" fill="#0b2545"/>
<rect x="424.14" y="212.07" width="9.72" height="9.72" fill="#0b2545"/>
<rect x="444.83" y="212.07" width="9.72" height="9.72" fill="#0b2545"/>
<rect x="465.52" y="212.07" width="9.72" height="9.72" fill="#0b2545"/>
<rect x="486.21" y="212.07" width="9.72" height="9.72" fill="#0b2545"/>
<rect x="506.90" y="212.07" width="9.72" height="9.72" fill="#0b2545"/>
<rect x="527.59" y="212.07" width="9.72" height="9.72" fill="#0b2545"/>
<rect x="537.93" y="212.07" width="9.72" height="9.72" fill="#0b2545"/>
<rect x="548.28" y="212.07" width="9.72" height="9.72" fill="#0b2545"/>
<rect x="558.62" y="212.07" width="9.72" height="9.72" fill="#0b2545"/>
<rect x="568.97" y="212.07" width="9.72" height="9.72" fill="#0b2545"/>
<rect x="579.31" y="212.07" width="9.72" height="9.72" fill="#0b2545"/>
<rect x="589.66" y="212.07" width="9.72" height="9.72" fill="#0b2545"/>
<rect x="382.76" y="222.41" width="9.72" height="9.72" fill="#0b2545"/>
<rect x="393.10" y="222.41" width="9.72" height="9.72" fill="#0b2545"/>
<rect x="403.45" y="222.41" width="9.72" height="9.72" fill="#0b2545"/>
<rect x="413.79" y="222.41" width="9.72" height="9.72" fill="#0b2545"/>
<rect x="434.48" y="222.41" width="9.72" height="9.72" fill="#0b2545"/>
<rect x="320.69" y="232.76" width="9.72" height="9.72" fill="#0b2545"/>
<rect x="331.03" y="232.76" width="9.72" height="9.72" fill="#0b2545"/>
<rect x="341.38" y="232.76" width="9.72" height="9.72" fill="#0b2545"/>
<rect x="362.07" y="232.76" width="9.72" height="9.72" fill="#0b2545"/>
<rect x="382.76" y="232.76" width="9.72" height="9.72" fill="#0b2545"/>
<rect x="403.45" y="232.76" width="9.72" height="9.72" fill="#0b2545"/>
<rect x="424.14" y="232.76" width="9.72" height="9.72" fill="#0b2545"/>
<rect x="465.52" y="232.76" width="9.72" height="9.72" fill="#0b2545"/>
<rect x="486.21" y="232.76" width="9.72" height="9.72" fill="#0b2545"/>
<rect x="496.55" y="232.76" width="9.72" height="9.72" fill="#0b2545"/>
<rect x="506.90" y="232.76" width="9.72" height="9.72" fill="#0b2545"/>
<rect x="517.24" y="232.76" width="9.72" height="9.72" fill="#0b2545"/>
<rect x="527.59" y="232.76" width="9.72" height="9.72" fill="#0b2545"/>
<rect x="537.93" y="232.76" width="9.72" height="9.72" fill="#0b2545"/>
<rect x="568.97" y="232.76" width="9.72" height="9.72" fill="#0b2545"/>
<rect x="579.31" y="232.76" width="9.72" height="9.72" fill="#0b2545"/>
<rect x="589.66" y="232.76" width="9.72" height="9.72" fill="#0b2545"/>
<rect x="320.69" y="243.10" width="9.72" height="9.72" fill="#0b2545"/>
<rect x="341.38" y="243.10" width="9.72" height="9.72" fill="#0b2545"/>
<rect x="372.41" y="243.10" width="9.72" height="9.72" fill="#0b2545"/>
<rect x="424.14" y="243.10" width="9.72" height="9.72" fill="#0b2545"/>
<rect x="455.17" y="243.10" width="9.72" height="9.72" fill="#0b2545"/>
<rect x="548.28" y="243.10" width="9.72" height="9.72" fill="#0b2545"/>
<rect x="558.62" y="243.10" width="9.72" height="9.72" fill="#0b2545"/>
<rect x="568.97" y="243.10" width="9.72" height="9.72" fill="#0b2545"/>
<rect x="589.66" y="243.10" width="9.72" height="9.72" fill="#0b2545"/>
<rect x="300.00" y="253.45" width="9.72" height="9.72" fill="#0b2545"/>
<rect x="341.38" y="253.45" width="9.72" height="9.72" fill="#0b2545"/>
<rect x="362.07" y="253.45" width="9.72" height="9.72" fill="#0b2545"/>
<rect x="455.17" y="253.45" width="9.72" height="9.72" fill="#0b2545"/>
<rect x="475.86" y="253.45" width="9.72" height="9.72" fill="#0b2545"/>
<rect x="506.90" y="253.45" width="9.72" height="9.72" fill="#0b2545"/>
<rect x="517.24" y="253.45" width="9.72" height="9.72" fill="#0b2545"/>
<rect x="537.93" y="253.45" width="9.72" height="9.72" fill="#0b2545"/>
<rect x="548.28" y="253.45" width="9.72" height="9.72" fill="#0b2545"/>
<rect x="568.97" y="253.45" width="9.72" height="9.72" fill="#0b2545"/>
<rect x="300.00" y="263.79" width="9.72" height="9.72" fill="#0b2545"/>
<rect x="310.34" y="263.79" width="9.72" height="9.72" fill="#0b2545"/>
<rect x="320.69" y="263.79" width="9.72" height="9.72" fill="#0b2545"/>
<rect x="341.38" y="263.79" width="9.72" height="9.72" fill="#0b2545"/>
<rect x="351.72" y="263.79" width="9.72" height="9.72" fill="#0b2545"/>
<rect x="372.41" y="263.79" width="9.72" height="9.72" fill="#0b2545"/>
<rect x="382.76" y="263.79" width="9.72" height="9.72" fill="#0b2545"/>
<rect x="393.10" y="263.79" width="9.72" height="9.72" fill="#0b2545"/>
<rect x="413.79" y="263.79" width="9.72" height="9.72" fill="#0b2545"/>
<rect x="424.14" y="263.79" width="9.72" height="9.72" fill="#0b2545"/>
<rect x="434.48" y="263.79" width="9.72" height="9.72" fill="#0b2545"/>
<rect x="444.83" y="263.79" width="9.72" height="9.72" fill="#0b2545"/>
<rect x="455.17" y="263.79" width="9.72" height="9.72" fill="#0b2545"/>
<rect x="465.52" y="263.79" width="9.72" height="9.72" fill="#0b2545"/>
<rect x="548.28" y="263.79" width="9.72" height="9.72" fill="#0b2545"/>
<rect x="558.62" y="263.79" width="9.72" height="9.72" fill="#0b2545"/>
<rect x="579.31" y="263.79" width="9.72" height="9.72" fill="#0b2545"/>
<rect x="341.38" y="274.14" width="9.72" height="9.72" fill="#0b2545"/>
<rect x="362.07" y="274.14" width="9.72" height="9.72" fill="#0b2545"/>
<rect x="403.45" y="274.14" width="9.72" height="9.72" fill="#0b2545"/>
<rect x="413.79" y="274.14" width="9.72" height="9.72" fill="#0b2545"/>
<rect x="424.14" y="274.14" width="9.72" height="9.72" fill="#0b2545"/>
<rect x="434.48" y="274.14" width="9.72" height="9.72" fill="#0b2545"/>
<rect x="444.83" y="274.14" width="9.72" height="9.72" fill="#0b2545"/>
<rect x="455.17" y="274.14" width="9.72" height="9.72" fill="#0b2545"/>
<rect x="475.86" y="274.14" width="9.72" height="9.72" fill="#0b2545"/>
<rect x="486.21" y="274.14" width="9.72" height="9.72" fill="#0b2545"/>
<rect x="506.90" y="274.14" width="9.72" height="9.72" fill="#0b2545"/>
<rect x="568.97" y="274.14" width="9.72" height="9.72" fill="#0b2545"/>
<rect x="579.31" y="274.14" width="9.72" height="9.72" fill="#0b2545"/>
<rect x="310.34" y="284.48" width="9.72" height="9.72" fill="#0b2545"/>
<rect x="320.69" y="284.48" width="9.72" height="9.72" fill="#0b2545"/>
<rect x="331.03" y="284.48" width="9.72" height="9.72" fill="#0b2545"/>
<rect x="341.38" y="284.48" width="9.72" height="9.72" fill="#0b2545"/>
<rect x="351.72" y="284.48" width="9.72" height="9.72" fill="#0b2545"/>
<rect x="372.41" y="284.48" width="9.72" height="9.72" fill="#0b2545"/>
<rect x="413.79" y="284.48" width="9.72" height="9.72" fill="#0b2545"/>
<rect x="424.14" y="284.48" width="9.72" height="9.72" fill="#0b2545"/>
<rect x="434.48" y="284.48" width="9.72" height="9.72" fill="#0b2545"/>
<rect x="455.17" y="284.48" width="9.72" height="9.72" fill="#0b2545"/>
<rect x="486.21" y="284.48" width="9.72" height="9.72" fill="#0b2545"/>
<rect x="496.55" y="284.48" width="9.72" height="9.72" fill="#0b2545"/>
<rect x="506.90" y="284.48" width="9.72" height="9.72" fill="#0b2545"/>
<rect x="527.59" y="284.48" width="9.72" height="9.72" fill="#0b2545"/>
<rect x="537.93" y="284.48" width="9.72" height="9.72" fill="#0b2545"/>
<rect x="548.28" y="284.48" width="9.72" height="9.72" fill="#0b2545"/>
<rect x="568.97" y="284.48" width="9.72" height="9.72" fill="#0b2545"/>
<rect x="579.31" y="284.48" width="9.72" height="9.72" fill="#0b2545"/>
<rect x="589.66" y="284.48" width="9.72" height="9.72" fill="#0b2545"/>
<rect x="300.00" y="294.83" width="9.72" height="9.72" fill="#0b2545"/>
<rect x="351.72" y="294.83" width="9.72" height="9.72" fill="#0b2545"/>
<rect x="362.07" y="294.83" width="9.72" height="9.72" fill="#0b2545"/>
<rect x="372.41" y="294.83" width="9.72" height="9.72" fill="#0b2545"/>
<rect x="382.76" y="294.83" width="9.72" height="9.72" fill="#0b2545"/>
<rect x="403.45" y="294.83" width="9.72" height="9.72" fill="#0b2545"/>
<rect x="413.79" y="294.83" width="9.72" height="9.72" fill="#0b2545"/>
<rect x="424.14" y="294.83" width="9.72" height="9.72" fill="#0b2545"/>
<rect x="434.48" y="294.83" width="9.72" height="9.72" fill="#0b2545"/>
<rect x="455.17" y="294.83" width="9.72" height="9.72" fill="#0b2545"/>
<rect x="475.86" y="294.83" width="9.72" height="9.72" fill="#0b2545"/>
<rect x="506.90" y="294.83" width="9.72" height="9.72" fill="#0b2545"/>
<rect x="527.59" y="294.83" width="9.72" height="9.72" fill="#0b2545"/>
<rect x="548.28" y="294.83" width="9.72" height="9.72" fill="#0b2545"/>
<rect x="558.62" y="294.83" width="9.72" height="9.72" fill="#0b2545"/>
<rect x="300.00" y="305.17" width="9.72" height="9.72" fill="#0b2545"/>
<rect x="310.34" y="305.17" width="9.72" height="9.72" fill="#0b2545"/>
<rect x="320.69" y="305.17" width="9.72" height="9.72" fill="#0b2545"/>
<rect x="372.41" y="305.17" width="9.72" height="9.72" fill="#0b2545"/>
<rect x="382.76" y="305.17" width="9.72" height="9.72" fill="#0b2545"/>
<rect x="403.45" y="305.17" width="9.72" height="9.72" fill="#0b2545"/>
<rect x="444.83" y="305.17" width="9.72" height="9.72" fill="#0b2545"/>
<rect x="455.17" y="305.17" width="9.72" height="9.72" fill="#0b2545"/>
<rect x="465.52" y="305.17" width="9.72" height="9.72" fill="#0b2545"/>
<rect x="486.21" y="305.17" width="9.72" height="9.72" fill="#0b2545"/>
<rect x="506.90" y="305.17" width="9.72" height="9.72" fill="#0b2545"/>
<rect x="517.24" y="305.17" width="9.72" height="9.72" fill="#0b2545"/>
<rect x="527.59" y="305.17" width="9.72" height="9.72" fill="#0b2545"/>
<rect x="537.93" y="305.17" width="9.72" height="9.72" fill="#0b2545"/>
<rect x="548.28" y="305.17" width="9.72" height="9.72" fill="#0b2545"/>
<rect x="558.62" y="305.17" width="9.72" height="9.72" fill="#0b2545"/>
<rect x="300.00" y="315.52" width="9.72" height="9.72" fill="#0b2545"/>
<rect x="310.34" y="315.52" width="9.72" height="9.72" fill="#0b2545"/>
<rect x="320.69" y="315.52" width="9.72" height="9.72" fill="#0b2545"/>
<rect x="331.03" y="315.52" width="9.72" height="9.72" fill="#0b2545"/>
<rect x="341.38" y="315.52" width="9.72" height="9.72" fill="#0b2545"/>
<rect x="351.72" y="315.52" width="9.72" height="9.72" fill="#0b2545"/>
<rect x="362.07" y="315.52" width="9.72" height="9.72" fill="#0b2545"/>
<rect x="372.41" y="315.52" width="9.72" height="9.72" fill="#0b2545"/>
<rect x="382.76" y="315.52" width="9.72" height="9.72" fill="#0b2545"/>
<rect x="455.17" y="315.52" width="9.72" height="9.72" fill="#0b2545"/>
<rect x="527.59" y="315.52" width="9.72" height="9.72" fill="#0b2545"/>
<rect x="548.28" y="315.52" width="9.72" height="9.72" fill="#0b2545"/>
<rect x="558.62" y="315.52" width="9.72" height="9.72" fill="#0b2545"/>
<rect x="579.31" y="315.52" width="9.72" height="9.72" fill="#0b2545"/>
<rect x="300.00" y="325.86" width="9.72" height="9.72" fill="#0b2545"/>
<rect x="310.34" y="325.86" width="9.72" height="9.72" fill="#0b2545"/>
<rect x="331.03" y="325.86" width="9.72" height="9.72" fill="#0b2545"/>
<rect x="351.72" y="325.86" width="9.72" height="9.72" fill="#0b2545"/>
<rect x="393.10" y="325.86" width="9.72" height="9.72" fill="#0b2545"/>
<rect x="403.45" y="325.86" width="9.72" height="9.72" fill="#0b2545"/>
<rect x="413.79" y="325.86" width="9.72" height="9.72" fill="#0b2545"/>
<rect x="424.14" y="325.86" width="9.72" height="9.72" fill="#0b2545"/>
<rect x="455.17" y="325.86" width="9.72" height="9.72" fill="#0b2545"/>
<rect x="486.21" y="325.86" width="9.72" height="9.72" fill="#0b2545"/>
<rect x="506.90" y="325.86" width="9.72" height="9.72" fill="#0b2545"/>
<rect x="517.24" y="325.86" width="9.72" height="9.72" fill="#0b2545"/>
<rect x="537.93" y="325.86" width="9.72" height="9.72" fill="#0b2545"/>
<rect x="558.62" y="325.86" width="9.72" height="9.72" fill="#0b2545"/>
<rect x="300.00" y="336.21" width="9.72" height="9.72" fill="#0b2545"/>
<rect x="351.72" y="336.21" width="9.72" height="9.72" fill="#0b2545"/>
<rect x="362.07" y="336.21" width="9.72" height="9.72" fill="#0b2545"/>
<rect x="372.41" y="336.21" width="9.72" height="9.72" fill="#0b2545"/>
<rect x="382.76" y="336.21" width="9.72" height="9.72" fill="#0b2545"/>
<rect x="403.45" y="336.21" width="9.72" height="9.72" fill="#0b2545"/>
<rect x="424.14" y="336.21" width="9.72" height="9.72" fill="#0b2545"/>
<rect x="434.48" y="336.21" width="9.72" height="9.72" fill="#0b2545"/>
<rect x="455.17" y="336.21" width="9.72" height="9.72" fill="#0b2545"/>
<rect x="496.55" y="336.21" width="9.72" height="9.72" fill="#0b2545"/>
<rect x="558.62" y="336.21" width="9.72" height="9.72" fill="#0b2545"/>
<rect x="568.97" y="336.21" width="9.72" height="9.72" fill="#0b2545"/>
<rect x="300.00" y="346.55" width="9.72" height="9.72" fill="#0b2545"/>
<rect x="320.69" y="346.55" width="9.72" height="9.72" fill="#0b2545"/>
<rect x="331.03" y="346.55" width="9.72" height="9.72" fill="#0b2545"/>
<rect x="382.76" y="346.55" width="9.72" height="9.72" fill="#0b2545"/>
<rect x="434.48" y="346.55" width="9.72" height="9.72" fill="#0b2545"/>
<rect x="465.52" y="346.55" width="9.72" height="9.72" fill="#0b2545"/>
<rect x="486.21" y="346.55" width="9.72" height="9.72" fill="#0b2545"/>
<rect x="496.55" y="346.55" width="9.72" height="9.72" fill="#0b2545"/>
<rect x="506.90" y="346.55" width="9.72" height="9.72" fill="#0b2545"/>
<rect x="517.24" y="346.55" width="9.72" height="9.72" fill="#0b2545"/>
<rect x="537.93" y="346.55" width="9.72" height="9.72" fill="#0b2545"/>
<rect x="558.62" y="346.55" width="9.72" height="9.72" fill="#0b2545"/>
<rect x="579.31" y="346.55" width="9.72" height="9.72" fill="#0b2545"/>
<rect x="300.00" y="356.90" width="9.72" height="9.72" fill="#0b2545"/>
<rect x="341.38" y="356.90" width="9.72" height="9.72" fill="#0b2545"/>
<rect x="362.07" y="356.90" width="9.72" height="9.72" fill="#0b2545"/>
<rect x="372.41" y="356.90" width="9.72" height="9.72" fill="#0b2545"/>
<rect x="393.10" y="356.90" width="9.72" height="9.72" fill="#0b2545"/>
<rect x="403.45" y="356.90" width="9.72" height="9.72" fill="#0b2545"/>
<rect x="413.79" y="356.90" width="9.72" height="9.72" fill="#0b2545"/>
<rect x="434.48" y="356.90" width="9.72" height="9.72" fill="#0b2545"/>
<rect x="444.83" y="356.90" width="9.72" height="9.72" fill="#0b2545"/>
<rect x="455.17" y="356.90" width="9.72" height="9.72" fill="#0b2545"/>
<rect x="486.21" y="356.90" width="9.72" height="9.72" fill="#0b2545"/>
<rect x="496.55" y="356.90" width="9.72" height="9.72" fill="#0b2545"/>
<rect x="506.90" y="356.90" width="9.72" height="9.72" fill="#0b2545"/>
<rect x="517.24" y="356.90" width="9.72" height="9.72" fill="#0b2545"/>
<rect x="527.59" y="356.90" width="9.72" height="9.72" fill="#0b2545"/>
<rect x="537.93" y="356.90" width="9.72" height="9.72" fill="#0b2545"/>
<rect x="548.28" y="356.90" width="9.72" height="9.72" fill="#0b2545"/>
<rect x="568.97" y="356.90" width="9.72" height="9.72" fill="#0b2545"/>
<rect x="579.31" y="356.90" width="9.72" height="9.72" fill="#0b2545"/>
<rect x="382.76" y="367.24" width="9.72" height="9.72" fill="#0b2545"/>
<rect x="403.45" y="367.24" width="9.72" height="9.72" fill="#0b2545"/>
<rect x="424.14" y="367.24" width="9.72" height="9.72" fill="#0b2545"/>
<rect x="444.83" y="367.24" width="9.72" height="9.72" fill="#0b2545"/>
<rect x="455.17" y="367.24" width="9.72" height="9.72" fill="#0b2545"/>
<rect x="475.86" y="367.24" width="9.72" height="9.72" fill="#0b2545"/>
<rect x="486.21" y="367.24" width="9.72" height="9.72" fill="#0b2545"/>
<rect x="506.90" y="367.24" width="9.72" height="9.72" fill="#0b2545"/>
<rect x="548.28" y="367.24" width="9.72" height="9.72" fill="#0b2545"/>
<rect x="579.31" y="367.24" width="9.72" height="9.72" fill="#0b2545"/>
<rect x="589.66" y="367.24" width="9.72" height="9.72" fill="#0b2545"/>
<rect x="300.00" y="377.59" width="9.72" height="9.72" fill="#0b2545"/>
<rect x="310.34" y="377.59" width="9.72" height="9.72" fill="#0b2545"/>
<rect x="320.69" y="377.59" width="9.72" height="9.72" fill="#0b2545"/>
<rect x="331.03" y="377.59" width="9.72" height="9.72" fill="#0b2545"/>
<rect x="341.38" y="377.59" width="9.72" height="9.72" fill="#0b2545"/>
<rect x="351.72" y="377.59" width="9.72" height="9.72" fill="#0b2545"/>
<rect x="362.07" y="377.59" width="9.72" height="9.72" fill="#0b2545"/>
<rect x="393.10" y="377.59" width="9.72" height="9.72" fill="#0b2545"/>
<rect x="403.45" y="377.59" width="9.72" height="9.72" fill="#0b2545"/>
<rect x="434.48" y="377.59" width="9.72" height="9.72" fill="#0b2545"/>
<rect x="506.90" y="377.59" width="9.72" height="9.72" fill="#0b2545"/>
<rect x="527.59" y="377.59" width="9.72" height="9.72" fill="#0b2545"/>
<rect x="548.28" y="377.59" width="9.72" height="9.72" fill="#0b2545"/>
<rect x="558.62" y="377.59" width="9.72" height="9.72" fill="#0b2545"/>
<rect x="300.00" y="387.93" width="9.72" height="9.72" fill="#0b2545"/>
<rect x="362.07" y="387.93" width="9.72" height="9.72" fill="#0b2545"/>
<rect x="413.79" y="387.93" width="9.72" height="9.72" fill="#0b2545"/>
<rect x="424.14" y="387.93" width="9.72" height="9.72" fill="#0b2545"/>
<rect x="455.17" y="387.93" width="9.72" height="9.72" fill="#0b2545"/>
<rect x="475.86" y="387.93" width="9.72" height="9.72" fill="#0b2545"/>
<rect x="486.21" y="387.93" width="9.72" height="9.72" fill="#0b2545"/>
<rect x="496.55" y="387.93" width="9.72" height="9.72" fill="#0b2545"/>
<rect x="506.90" y="387.93" width="9.72" height="9.72" fill="#0b2545"/>
<rect x="548.28" y="387.93" width="9.72" height="9.72" fill="#0b2545"/>
<rect x="558.62" y="387.93" width="9.72" height="9.72" fill="#0b2545"/>
<rect x="579.31" y="387.93" width="9.72" height="9.72" fill="#0b2545"/>
<rect x="300.00" y="398.28" width="9.72" height="9.72" fill="#0b2545"/>
<rect x="320.69" y="398.28" width="9.72" height="9.72" fill="#0b2545"/>
<rect x="331.03" y="398.28" width="9.72" height="9.72" fill="#0b2545"/>
<rect x="341.38" y="398.28" width="9.72" height="9.72" fill="#0b2545"/>
<rect x="362.07" y="398.28" width="9.72" height="9.72" fill="#0b2545"/>
<rect x="382.76" y="398.28" width="9.72" height="9.72" fill="#0b2545"/>
<rect x="403.45" y="398.28" width="9.72" height="9.72" fill="#0b2545"/>
<rect x="434.48" y="398.28" width="9.72" height="9.72" fill="#0b2545"/>
<rect x="444.83" y="398.28" width="9.72" height="9.72" fill="#0b2545"/>
<rect x="475.86" y="398.28" width="9.72" height="9.72" fill="#0b2545"/>
<rect x="486.21" y="398.28" width="9.72" height="9.72" fill="#0b2545"/>
<rect x="506.90" y="398.28" width="9.72" height="9.72" fill="#0b2545"/>
<rect x="517.24" y="398.28" width="9.72" height="9.72" fill="#0b2545"/>
<rect x="527.59" y="398.28" width="9.72" height="9.72" fill="#0b2545"/>
<rect x="537.93" y="398.28" width="9.72" height="9.72" fill="#0b2545"/>
<rect x="548.28" y="398.28" width="9.72" height="9.72" fill="#0b2545"/>
<rect x="558.62" y="398.28" width="9.72" height="9.72" fill="#0b2545"/>
<rect x="579.31" y="398.28" width="9.72" height="9.72" fill="#0b2545"/>
<rect x="589.66" y="398.28" width="9.72" height="9.72" fill="#0b2545"/>
<rect x="300.00" y="408.62" width="9.72" height="9.72" fill="#0b2545"/>
<rect x="320.69" y="408.62" width="9.72" height="9.72" fill="#0b2545"/>
<rect x="331.03" y="408.62" width="9.72" height="9.72" fill="#0b2545"/>
<rect x="341.38" y="408.62" width="9.72" height="9.72" fill="#0b2545"/>
<rect x="362.07" y="408.62" width="9.72" height="9.72" fill="#0b2545"/>
<rect x="382.76" y="408.62" width="9.72" height="9.72" fill="#0b2545"/>
<rect x="403.45" y="408.62" width="9.72" height="9.72" fill="#0b2545"/>
<rect x="413.79" y="408.62" width="9.72" height="9.72" fill="#0b2545"/>
<rect x="424.14" y="408.62" width="9.72" height="9.72" fill="#0b2545"/>
<rect x="434.48" y="408.62" width="9.72" height="9.72" fill="#0b2545"/>
<rect x="444.83" y="408.62" width="9.72" height="9.72" fill="#0b2545"/>
<rect x="465.52" y="408.62" width="9.72" height="9.72" fill="#0b2545"/>
<rect x="475.86" y="408.62" width="9.72" height="9.72" fill="#0b2545"/>
<rect x="486.21" y="408.62" width="9.72" height="9.72" fill="#0b2545"/>
<rect x="496.55" y="408.62" width="9.72" height="9.72" fill="#0b2545"/>
<rect x="548.28" y="408.62" width="9.72" height="9.72" fill="#0b2545"/>
<rect x="558.62" y="408.62" width="9.72" height="9.72" fill="#0b2545"/>
<rect x="300.00" y="418.97" width="9.72" height="9.72" fill="#0b2545"/>
<rect x="320.69" y="418.97" width="9.72" height="9.72" fill="#0b2545"/>
<rect x="331.03" y="418.97" width="9.72" height="9.72" fill="#0b2545"/>
<rect x="341.38" y="418.97" width="9.72" height="9.72" fill="#0b2545"/>
<rect x="362.07" y="418.97" width="9.72" height="9.72" fill="#0b2545"/>
<rect x="382.76" y="418.97" width="9.72" height="9.72" fill="#0b2545"/>
<rect x="393.10" y="418.97" width="9.72" height="9.72" fill="#0b2545"/>
<rect x="403.45" y="418.97" width="9.72" height="9.72" fill="#0b2545"/>
<rect x="413.79" y="418.97" width="9.72" height="9.72" fill="#0b2545"/>
<rect x="517.24" y="418.97" width="9.72" height="9.72" fill="#0b2545"/>
<rect x="527.59" y="418.97" width="9.72" height="9.72" fill="#0b2545"/>
<rect x="537.93" y="418.97" width="9.72" height="9.72" fill="#0b2545"/>
<rect x="548.28" y="418.97" width="9.72" height="9.72" fill="#0b2545"/>
<rect x="558.62" y="418.97" width="9.72" height="9.72" fill="#0b2545"/>
<rect x="579.31" y="418.97" width="9.72" height="9.72" fill="#0b2545"/>
<rect x="300.00" y="429.31" width="9.72" height="9.72" fill="#0b2545"/>
<rect x="362.07" y="429.31" width="9.72" height="9.72" fill="#0b2545"/>
<rect x="393.10" y="429.31" width="9.72" height="9.72" fill="#0b2545"/>
<rect x="424.14" y="429.31" width="9.72" height="9.72" fill="#0b2545"/>
<rect x="434.48" y="429.31" width="9.72" height="9.72" fill="#0b2545"/>
<rect x="444.83" y="429.31" width="9.72" height="9.72" fill="#0b2545"/>
<rect x="455.17" y="429.31" width="9.72" height="9.72" fill="#0b2545"/>
<rect x="496.55" y="429.31" width="9.72" height="9.72" fill="#0b2545"/>
<rect x="517.24" y="429.31" width="9.72" height="9.72" fill="#0b2545"/>
<rect x="579.31" y="429.31" width="9.72" height="9.72" fill="#0b2545"/>
<rect x="300.00" y="439.66" width="9.72" height="9.72" fill="#0b2545"/>
<rect x="310.34" y="439.66" width="9.72" height="9.72" fill="#0b2545"/>
<rect x="320.69" y="439.66" width="9.72" height="9.72" fill="#0b2545"/>
<rect x="331.03" y="439.66" width="9.72" height="9.72" fill="#0b2545"/>
<rect x="341.38" y="439.66" width="9.72" height="9.72" fill="#0b2545"/>
<rect x="351.72" y="439.66" width="9.72" height="9.72" fill="#0b2545"/>
<rect x="362.07" y="439.66" width="9.72" height="9.72" fill="#0b2545"/>
<rect x="403.45" y="439.66" width="9.72" height="9.72" fill="#0b2545"/>
<rect x="413.79" y="439.66" width="9.72" height="9.72" fill="#0b2545"/>
<rect x="424.14" y="439.66" width="9.72" height="9.72" fill="#0b2545"/>
<rect x="434.48" y="439.66" width="9.72" height="9.72" fill="#0b2545"/>
<rect x="475.86" y="439.66" width="9.72" height="9.72" fill="#0b2545"/>
<rect x="548.28" y="439.66" width="9.72" height="9.72" fill="#0b2545"/>
    </g>
    <path d="
    M 130 110.0
    L 560 110.0
    L 560 30.0
    L 800 300
    L 560 570.0
    L 560 490.0
    L 130 490.0
    Q 176.0 300 130 110.0
    Z
    " fill="none" stroke="#04121f" stroke-width="16" stroke-linejoin="round"/>
  </g>
</svg>