<svg xmlns="http://www.w3.org/2000/svg" viewBox="0 0 900 620">
  <defs>
    <linearGradient id="bgGrad" x1="0%" y1="0%" x2="100%" y2="100%">
      <stop offset="0%" stop-color="#f3f8fc"/>
      <stop offset="100%" stop-color="#dcedf7"/>
    </linearGradient>
    <linearGradient id="body" x1="0%" y1="0%" x2="100%" y2="100%">
      <stop offset="0%" stop-color="#eaf4fb"/>
      <stop offset="100%" stop-color="#bfe0f4"/>
    </linearGradient>
    <filter id="soft" x="-30%" y="-30%" width="160%" height="160%">
      <feDropShadow dx="0" dy="6" stdDeviation="10" flood-color="#0b2545" flood-opacity="0.2"/>
    </filter>
    <clipPath id="arrowClip"><path d="
    M 130 110.0
    L 560 110.0
    L 560 30.0
    L 800 300
    L 560 570.0
    L 560 490.0
    L 130 490.0
    Q 176.0 300 130 110.0
    Z
    "/></clipPath>
  </defs>

  <rect x="0" y="0" width="900" height="620" fill="url(#bgGrad)"/>
  <circle cx="416.7" cy="231.5" r="1.5" fill="#5aa6d6" opacity="0.45"/>
<circle cx="5.8" cy="311.7" r="3.0" fill="#5aa6d6" opacity="0.18"/>
<circle cx="498.8" cy="382.3" r="1.3" fill="#5aa6d6" opacity="0.28"/>
<circle cx="633.1" cy="280.3" r="2.7" fill="#5aa6d6" opacity="0.21"/>
<circle cx="214.2" cy="68.8" r="2.2" fill="#5aa6d6" opacity="0.47"/>
<circle cx="531.4" cy="480.0" r="2.0" fill="#5aa6d6" opacity="0.41"/>
<circle cx="91.5" cy="180.5" r="2.5" fill="#5aa6d6" opacity="0.40"/>
<circle cx="379.6" cy="54.4" r="1.7" fill="#5aa6d6" opacity="0.22"/>
<circle cx="253.1" cy="501.9" r="1.6" fill="#5aa6d6" opacity="0.46"/>
<circle cx="791.4" cy="34.0" r="2.0" fill="#5aa6d6" opacity="0.32"/>
<circle cx="21.1" cy="263.3" r="3.0" fill="#5aa6d6" opacity="0.19"/>
<circle cx="537.2" cy="75.2" r="2.4" fill="#5aa6d6" opacity="0.46"/>
<circle cx="182.7" cy="5.1" r="1.4" fill="#5aa6d6" opacity="0.34"/>
<circle cx="15.7" cy="52.6" r="2.2" fill="#5aa6d6" opacity="0.47"/>
<circle cx="378.1" cy="246.8" r="2.5" fill="#5aa6d6" opacity="0.18"/>
<circle cx="521.8" cy="107.0" r="2.4" fill="#5aa6d6" opacity="0.49"/>
<circle cx="48.8" cy="344.1" r="2.4" fill="#5aa6d6" opacity="0.20"/>
<circle cx="241.5" cy="616.8" r="3.2" fill="#5aa6d6" opacity="0.19"/>
<circle cx="634.9" cy="589.6" r="1.7" fill="#5aa6d6" opacity="0.36"/>
<circle cx="38.7" cy="226.9" r="2.5" fill="#5aa6d6" opacity="0.36"/>
<circle cx="697.2" cy="53.8" r="1.9" fill="#5aa6d6" opacity="0.45"/>
<circle cx="525.7" cy="279.8" r="2.0" fill="#5aa6d6" opacity="0.50"/>
<circle cx="517.0" cy="11.4" r="2.8" fill="#5aa6d6" opacity="0.27"/>
<circle cx="390.2" cy="132.3" r="2.1" fill="#5aa6d6" opacity="0.26"/>
<circle cx="79.9" cy="390.3" r="1.4" fill="#5aa6d6" opacity="0.42"/>
<circle cx="22.9" cy="484.0" r="2.8" fill="#5aa6d6" opacity="0.32"/>
<circle cx="638.5" cy="153.9" r="2.7" fill="#5aa6d6" opacity="0.30"/>
<circle cx="207.9" cy="597.7" r="2.0" fill="#5aa6d6" opacity="0.28"/>
<circle cx="773.9" cy="229.0" r="2.5" fill="#5aa6d6" opacity="0.21"/>
<circle cx="758.9" cy="160.5" r="1.3" fill="#5aa6d6" opacity="0.49"/>
<circle cx="155.5" cy="586.8" r="3.2" fill="#5aa6d6" opacity="0.36"/>
<circle cx="10.7" cy="37.8" r="1.6" fill="#5aa6d6" opacity="0.29"/>
<circle cx="550.4" cy="599.2" r="1.9" fill="#5aa6d6" opacity="0.20"/>
<circle cx="505.7" cy="85.1" r="1.4" fill="#5aa6d6" opacity="0.34"/>
<circle cx="626.4" cy="40.7" r="2.1" fill="#5aa6d6" opacity="0.40"/>
<circle cx="687.8" cy="237.5" r="3.0" fill="#5aa6d6" opacity="0.21"/>
<circle cx="643.9" cy="478.5" r="3.0" fill="#5aa6d6" opacity="0.32"/>
<circle cx="89.3" cy="30.0" r="2.3" fill="#5aa6d6" opacity="0.21"/>
<circle cx="566.7" cy="52.2" r="2.8" fill="#5aa6d6" opacity="0.23"/>
<circle cx="11.7" cy="109.0" r="2.1" fill="#5aa6d6" opacity="0.35"/>
<circle cx="349.5" cy="107.3" r="2.2" fill="#5aa6d6" opacity="0.48"/>
<circle cx="481.9" cy="583.6" r="1.3" fill="#5aa6d6" opacity="0.50"/>
<circle cx="800.1" cy="337.5" r="2.2" fill="#5aa6d6" opacity="0.34"/>
<circle cx="818.6" cy="40.7" r="2.5" fill="#5aa6d6" opacity="0.34"/>
<circle cx="270.3" cy="449.5" r="2.6" fill="#5aa6d6" opacity="0.19"/>
<circle cx="629.6" cy="281.2" r="2.2" fill="#5aa6d6" opacity="0.37"/>
<circle cx="47.7" cy="373.8" r="1.9" fill="#5aa6d6" opacity="0.46"/>
<circle cx="208.0" cy="510.3" r="2.7" fill="#5aa6d6" opacity="0.37"/>
<circle cx="788.3" cy="22.3" r="2.4" fill="#5aa6d6" opacity="0.36"/>
<circle cx="610.3" cy="252.1" r="1.3" fill="#5aa6d6" opacity="0.22"/>
<circle cx="547.3" cy="112.4" r="1.3" fill="#5aa6d6" opacity="0.27"/>
<circle cx="423.2" cy="332.1" r="1.3" fill="#5aa6d6" opacity="0.42"/>
<circle cx="300.4" cy="485.3" r="1.2" fill="#5aa6d6" opacity="0.48"/>
<circle cx="531.2" cy="605.3" r="3.2" fill="#5aa6d6" opacity="0.44"/>
<circle cx="95.6" cy="216.2" r="1.7" fill="#5aa6d6" opacity="0.42"/>
<circle cx="172.9" cy="137.1" r="1.4" fill="#5aa6d6" opacity="0.19"/>
<circle cx="844.3" cy="605.2" r="1.9" fill="#5aa6d6" opacity="0.41"/>
<circle cx="420.8" cy="323.6" r="1.9" fill="#5aa6d6" opacity="0.37"/>
<circle cx="212.5" cy="158.9" r="2.2" fill="#5aa6d6" opacity="0.22"/>
<circle cx="395.3" cy="585.2" r="1.2" fill="#5aa6d6" opacity="0.19"/>
<circle cx="720.0" cy="35.8" r="1.7" fill="#5aa6d6" opacity="0.45"/>
<circle cx="544.7" cy="136.8" r="1.3" fill="#5aa6d6" opacity="0.25"/>
<circle cx="270.1" cy="496.2" r="3.2" fill="#5aa6d6" opacity="0.43"/>
<circle cx="811.6" cy="577.0" r="3.0" fill="#5aa6d6" opacity="0.47"/>
<circle cx="870.8" cy="58.5" r="1.8" fill="#5aa6d6" opacity="0.24"/>
<circle cx="543.8" cy="304.9" r="1.9" fill="#5aa6d6" opacity="0.44"/>
<circle cx="359.2" cy="129.5" r="1.8" fill="#5aa6d6" opacity="0.31"/>
<circle cx="549.4" cy="352.4" r="2.1" fill="#5aa6d6" opacity="0.22"/>
<circle cx="361.9" cy="201.5" r="1.5" fill="#5aa6d6" opacity="0.34"/>
<circle cx="169.7" cy="441.2" r="2.5" fill="#5aa6d6" opacity="0.20"/>
<circle cx="562.8" cy="209.5" r="2.1" fill="#5aa6d6" opacity="0.36"/>
<circle cx="685.4" cy="547.8" r="2.7" fill="#5aa6d6" opacity="0.22"/>
<circle cx="487.7" cy="207.9" r="1.2" fill="#5aa6d6" opacity="0.34"/>
<circle cx="423.5" cy="537.5" r="1.8" fill="#5aa6d6" opacity="0.44"/>
<circle cx="462.7" cy="61.4" r="2.6" fill="#5aa6d6" opacity="0.25"/>
<circle cx="480.2" cy="44.3" r="1.2" fill="#5aa6d6" opacity="0.47"/>
<circle cx="37.8" cy="92.4" r="1.5" fill="#5aa6d6" opacity="0.18"/>
<circle cx="741.7" cy="617.0" r="2.5" fill="#5aa6d6" opacity="0.29"/>
<circle cx="799.6" cy="313.8" r="1.5" fill="#5aa6d6" opacity="0.39"/>
<circle cx="323.1" cy="167.4" r="1.8" fill="#5aa6d6" opacity="0.28"/>
<circle cx="164.2" cy="379.8" r="2.9" fill="#5aa6d6" opacity="0.35"/>
<circle cx="8.5" cy="424.2" r="1.2" fill="#5aa6d6" opacity="0.32"/>
<circle cx="779.2" cy="419.8" r="3.0" fill="#5aa6d6" opacity="0.41"/>
<circle cx="245.5" cy="89.1" r="2.1" fill="#5aa6d6" opacity="0.39"/>
<circle cx="208.9" cy="205.3" r="2.7" fill="#5aa6d6" opacity="0.27"/>
<circle cx="540.8" cy="338.2" r="3.1" fill="#5aa6d6" opacity="0.16"/>
<circle cx="167.8" cy="482.7" r="2.5" fill="#5aa6d6" opacity="0.18"/>
<circle cx="121.1" cy="130.7" r="2.3" fill="#5aa6d6" opacity="0.47"/>
<circle cx="194.9" cy="125.7" r="2.6" fill="#5aa6d6" opacity="0.30"/>
<circle cx="762.0" cy="619.4" r="3.1" fill="#5aa6d6" opacity="0.40"/>
<circle cx="446.6" cy="37.8" r="2.8" fill="#5aa6d6" opacity="0.29"/>
<circle cx="417.2" cy="391.9" r="3.1" fill="#5aa6d6" opacity="0.34"/>
<circle cx="826.1" cy="597.8" r="1.4" fill="#5aa6d6" opacity="0.27"/>
<circle cx="799.7" cy="475.8" r="3.1" fill="#5aa6d6" opacity="0.22"/>
<circle cx="478.0" cy="578.4" r="2.3" fill="#5aa6d6" opacity="0.38"/>
<circle cx="877.4" cy="107.4" r="1.3" fill="#5aa6d6" opacity="0.45"/>
<circle cx="523.0" cy="124.2" r="2.9" fill="#5aa6d6" opacity="0.25"/>
<circle cx="116.8" cy="184.5" r="1.3" fill="#5aa6d6" opacity="0.29"/>
<circle cx="701.6" cy="281.5" r="3.1" fill="#5aa6d6" opacity="0.16"/>
<circle cx="155.8" cy="89.2" r="2.3" fill="#5aa6d6" opacity="0.22"/>
<circle cx="600.5" cy="324.4" r="2.4" fill="#5aa6d6" opacity="0.45"/>
<circle cx="710.9" cy="571.8" r="1.5" fill="#5aa6d6" opacity="0.28"/>
<circle cx="864.4" cy="246.0" r="1.8" fill="#5aa6d6" opacity="0.32"/>
<circle cx="162.8" cy="526.0" r="2.5" fill="#5aa6d6" opacity="0.18"/>
<circle cx="867.8" cy="322.7" r="1.7" fill="#5aa6d6" opacity="0.36"/>
<circle cx="854.6" cy="215.1" r="1.2" fill="#5aa6d6" opacity="0.22"/>
<circle cx="52.8" cy="327.7" r="1.8" fill="#5aa6d6" opacity="0.45"/>
<circle cx="185.6" cy="9.4" r="2.1" fill="#5aa6d6" opacity="0.19"/>
<circle cx="279.4" cy="139.8" r="1.6" fill="#5aa6d6" opacity="0.37"/>
<circle cx="842.6" cy="229.5" r="2.5" fill="#5aa6d6" opacity="0.26"/>
<circle cx="823.5" cy="342.8" r="1.3" fill="#5aa6d6" opacity="0.41"/>
<circle cx="188.9" cy="29.1" r="1.2" fill="#5aa6d6" opacity="0.44"/>
<circle cx="638.9" cy="222.0" r="2.3" fill="#5aa6d6" opacity="0.40"/>
<circle cx="67.9" cy="437.6" r="2.6" fill="#5aa6d6" opacity="0.48"/>
<circle cx="53.2" cy="354.9" r="2.2" fill="#5aa6d6" opacity="0.45"/>
<circle cx="327.7" cy="410.7" r="3.0" fill="#5aa6d6" opacity="0.27"/>
<circle cx="463.9" cy="554.0" r="1.3" fill="#5aa6d6" opacity="0.49"/>
<circle cx="281.7" cy="283.5" r="1.8" fill="#5aa6d6" opacity="0.43"/>
<circle cx="479.4" cy="463.6" r="1.4" fill="#5aa6d6" opacity="0.46"/>
<circle cx="738.8" cy="421.8" r="1.6" fill="#5aa6d6" opacity="0.24"/>
<circle cx="406.8" cy="40.4" r="3.1" fill="#5aa6d6" opacity="0.29"/>
<circle cx="858.0" cy="113.4" r="2.5" fill="#5aa6d6" opacity="0.43"/>
<circle cx="580.1" cy="262.3" r="1.2" fill="#5aa6d6" opacity="0.30"/>
<circle cx="351.1" cy="585.9" r="3.1" fill="#5aa6d6" opacity="0.48"/>
<circle cx="882.2" cy="104.7" r="1.3" fill="#5aa6d6" opacity="0.25"/>
<circle cx="7.1" cy="73.7" r="2.4" fill="#5aa6d6" opacity="0.22"/>
<circle cx="549.7" cy="236.0" r="1.7" fill="#5aa6d6" opacity="0.49"/>
<circle cx="167.6" cy="547.1" r="2.3" fill="#5aa6d6" opacity="0.38"/>
<circle cx="129.6" cy="461.9" r="3.0" fill="#5aa6d6" opacity="0.22"/>
<circle cx="425.5" cy="405.0" r="2.1" fill="#5aa6d6" opacity="0.41"/>
<circle cx="579.9" cy="194.7" r="2.6" fill="#5aa6d6" opacity="0.42"/>
<circle cx="417.1" cy="366.0" r="2.5" fill="#5aa6d6" opacity="0.32"/>
<circle cx="79.9" cy="252.8" r="2.8" fill="#5aa6d6" opacity="0.40"/>
<circle cx="66.8" cy="296.4" r="2.4" fill="#5aa6d6" opacity="0.34"/>
<circle cx="134.8" cy="401.0" r="2.6" fill="#5aa6d6" opacity="0.34"/>
<circle cx="845.6" cy="358.1" r="1.2" fill="#5aa6d6" opacity="0.25"/>
<circle cx="631.9" cy="49.5" r="3.1" fill="#5aa6d6" opacity="0.39"/>
<circle cx="688.5" cy="105.4" r="1.2" fill="#5aa6d6" opacity="0.46"/>
<circle cx="459.9" cy="274.1" r="2.2" fill="#5aa6d6" opacity="0.42"/>
<circle cx="335.3" cy="479.1" r="1.5" fill="#5aa6d6" opacity="0.49"/>
<rect x="555.0" y="198.4" width="49.1" height="3" rx="1.5" fill="#5aa6d6" opacity="0.33"/>
<rect x="280.9" y="411.5" width="66.4" height="3" rx="1.5" fill="#5aa6d6" opacity="0.34"/>
<rect x="229.2" y="465.1" width="54.3" height="3" rx="1.5" fill="#5aa6d6" opacity="0.31"/>
<rect x="91.4" y="251.3" width="48.1" height="3" rx="1.5" fill="#5aa6d6" opacity="0.31"/>
<rect x="374.5" y="43.5" width="38.4" height="3" rx="1.5" fill="#5aa6d6" opacity="0.32"/>
<rect x="693.3" y="341.3" width="33.2" height="3" rx="1.5" fill="#5aa6d6" opacity="0.30"/>
<rect x="681.0" y="180.8" width="49.3" height="3" rx="1.5" fill="#5aa6d6" opacity="0.21"/>
<rect x="79.6" y="431.0" width="36.4" height="3" rx="1.5" fill="#5aa6d6" opacity="0.17"/>
<rect x="712.9" y="74.0" width="60.4" height="3" rx="1.5" fill="#5aa6d6" opacity="0.31"/>
<rect x="225.6" y="228.4" width="38.9" height="3" rx="1.5" fill="#5aa6d6" opacity="0.29"/>

  <g filter="url(#soft)">
    <path d="
    M 130 92.89999999999998
    L 560 92.89999999999998
    L 560 5.699999999999989
    L 800 300
    L 560 594.3
    L 560 507.1
    L 130 507.1
    Q 180.14 300 130 92.89999999999998
    Z
    " fill="none" stroke="#8fb8d6" stroke-width="8" stroke-linejoin="round"/>
    <path d="
    M 130 110.0
    L 560 110.0
    L 560 30.0
    L 800 300
    L 560 570.0
    L 560 490.0
    L 130 490.0
    Q 176.0 300 130 110.0
    Z
    " fill="url(#body)" stroke="#0b2545" stroke-width="15" stroke-linejoin="round"/>
  </g>

  <g clip-path="url(#arrowClip)">
    <rect x="286.0" y="136.0" width="328" height="328" rx="18" fill="#f4f9fc"/>
<rect x="300.00" y="150.00" width="9.72" height="9.72" fill="#0b2545"/>
<rect x="310.34" y="150.00" width="9.72" height="9.72" fill="#0b2545"/>
<rect x="320.69" y="150.00" width="9.72" height="9.72" fill="#0b2545"/>
<rect x="331.03" y="150.00" width="9.72" height="9.72" fill="#0b2545"/>
<rect x="341.38" y="150.00" width="9.72" height="9.72" fill="#0b2545"/>
<rect x="351.72" y="150.00" width="9.72" height="9.72" fill="#0b2545"/>
<rect x="362.07" y="150.00" width="9.72" height="9.72" fill="#0b2545"/>
<rect x="382.76" y="150.00" width="9.72" height="9.72" fill="#0b2545"/>
<rect x="393.10" y="150.00" width="9.72" height="9.72" fill="#0b2545"/>
<rect x="424.14" y="150.00" width="9.72" height="9.72" fill="#0b2545"/>
<rect x="444.83" y="150.00" width="9.72" height="9.72" fill="#0b2545"/>
<rect x="486.21" y="150.00" width="9.72" height="9.72" fill="#0b2545"/>
<rect x="506.90" y="150.00" width="9.72" height="9.72" fill="#0b2545"/>
<rect x="527.59" y="150.00" width="9.72" height="9.72" fill="#0b2545"/>
<rect x="537.93" y="150.00" width="9.72" height="9.72" fill="#0b2545"/>
<rect x="548.28" y="150.00" width="9.72" height="9.72" fill="#0b2545"/>
<rect x="558.62" y="150.00" width="9.72" height="9.72" fill="#0b2545"/>
<rect x="568.97" y="150.00" width="9.72" height="9.72" fill="#0b2545"/>
<rect x="579.31" y="150.00" width="9.72" height="9.72" fill="#0b2545"/>
<rect x="589.66" y="150.00" width="9.72" height="9.72" fill="#0b2545"/>
<rect x="300.00" y="160.34" width="9.72" height="9.72" fill="#0b2545"/>
<rect x="362.07" y="160.34" width="9.72" height="9.72" fill="#0b2545"/>
<rect x="382.76" y="160.34" width="9.72" height="9.72" fill="#0b2545"/>
<rect x="393.10" y="160.34" width="9.72" height="9.72" fill="#0b2545"/>
<rect x="413.79" y="160.34" width="9.72" height="9.72" fill="#0b2545"/>
<rect x="424.14" y="160.34" width="9.72" height="9.72" fill="#0b2545"/>
<rect x="444.83" y="160.34" width="9.72" height="9.72" fill="#0b2545"/>
<rect x="455.17" y="160.34" width="9.72" height="9.72" fill="#0b2545"/>
<rect x="475.86" y="160.34" width="9.72" height="9.72" fill="#0b2545"/>
<rect x="486.21" y="160.34" width="9.72" height="9.72" fill="#0b2545"/>
<rect x="496.55" y="160.34" width="9.72" height="9.72" fill="#0b2545"/>
<rect x="527.59" y="160.34" width="9.72" height="9.72" fill="#0b2545"/>
<rect x="589.66" y="160.34" width="9.72" height="9.72" fill="#0b2545"/>
<rect x="300.00" y="170.69" width="9.72" height="9.72" fill="#0b2545"/>
<rect x="320.69" y="170.69" width="9.72" height="9.72" fill="#0b2545"/>
<rect x="331.03" y="170.69" width="9.72" height="9.72" fill="#0b2545"/>
<rect x="341.38" y="170.69" width="9.72" height="9.72" fill="#0b2545"/>
<rect x="362.07" y="170.69" width="9.72" height="9.72" fill="#0b2545"/>
<rect x="382.76" y="170.69" width="9.72" height="9.72" fill="#0b2545"/>
<rect x="393.10" y="170.69" width="9.72" height="9.72" fill="#0b2545"/>
<rect x="403.45" y="170.69" width="9.72" height="9.72" fill="#0b2545"/>
<rect x="413.79" y="170.69" width="9.72" height="9.72" fill="#0b2545"/>
<rect x="434.48" y="170.69" width="9.72" height="9.72" fill="#0b2545"/>
<rect x="455.17" y="170.69" width="9.72" height="9.72" fill="#0b2545"/>
<rect x="496.55" y="170.69" width="9.72" height="9.72" fill="#0b2545"/>
<rect x="506.90" y="170.69" width="9.72" height="9.72" fill="#0b2545"/>
<rect x="527.59" y="170.69" width="9.72" height="9.72" fill="#0b2545"/>
<rect x="548.28" y="170.69" width="9.72" height="9.72" fill="#0b2545"/>
<rect x="558.62" y="170.69" width="9.72" height="9.72" fill="#0b2545"/>
<rect x="568.97" y="170.69" width="9.72" height="9.72" fill="#0b2545"/>
<rect x="589.66" y="170.69" width="9.72" height="9.72" fill="#0b2545"/>
<rect x="300.00" y="181.03" width="9.72" height="9.72" fill="#0b2545"/>
<rect x="320.69" y="181.03" width="9.72" height="9.72" fill="#0b2545"/>
<rect x="331.03" y="181.03" width="9.72" height="9.72" fill="#0b2545"/>
<rect x="341.38" y="181.03" width="9.72" height="9.72" fill="#0b2545"/>
<rect x="362.07" y="181.03" width="9.72" height="9.72" fill="#0b2545"/>
<rect x="393.10" y="181.03" width="9.72" height="9.72" fill="#0b2545"/>
<rect x="413.79" y="181.03" width="9.72" height="9.72" fill="#0b2545"/>
<rect x="424.14" y="181.03" width="9.72" height="9.72" fill="#0b2545"/>
<rect x="434.48" y="181.03" width="9.72" height="9.72" fill="#0b2545"/>
<rect x="444.83" y="181.03" width="9.72" height="9.72" fill="#0b2545"/>
<rect x="455.17" y="181.03" width="9.72" height="9.72" fill="#0b2545"/>
<rect x="465.52" y="181.03" width="9.72" height="9.72" fill="#0b2545"/>
<rect x="475.86" y="181.03" width="9.72" height="9.72" fill="#0b2545"/>
<rect x="496.55" y="181.03" width="9.72" height="9.72" fill="#0b2545"/>
<rect x="527.59" y="181.03" width="9.72" height="9.72" fill="#0b2545"/>
<rect x="548.28" y="181.03" width="9.72" height="9.72" fill="#0b2545"/>
<rect x="558.62" y="181.03" width="9.72" height="9.72" fill="#0b2545"/>
<rect x="568.97" y="181.03" width="9.72" height="9.72" fill="#0b2545"/>
<rect x="589.66" y="181.03" width="9.72" height="9.72" fill="#0b2545"/>
<rect x="300.00" y="191.38" width="9.72" height="9.72" fill="#0b2545"/>
<rect x="320.69" y="191.38" width="9.72" height="9.72" fill="#0b2545"/>
<rect x="331.03" y="191.38" width="9.72" height="9.72" fill="#0b2545"/>
<rect x="341.38" y="191.38" width="9.72" height="9.72" fill="#0b2545"/>
<rect x="362.07" y="191.38" width="9.72" height="9.72" fill="#0b2545"/>
<rect x="413.79" y="191.38" width="9.72" height="9.72" fill="#0b2545"/>
<rect x="434.48" y="191.38" width="9.72" height="9.72" fill="#0b2545"/>
<rect x="444.83" y="191.38" width="9.72" height="9.72" fill="#0b2545"/>
<rect x="455.17" y="191.38" width="9.72" height="9.72" fill="#0b2545"/>
<rect x="486.21" y="191.38" width="9.72" height="9.72" fill="#0b2545"/>
<rect x="496.55" y="191.38" width="9.72" height="9.72" fill="#0b2545"/>
<rect x="506.90" y="191.38" width="9.72" height="9.72" fill="#0b2545"/>
<rect x="527.59" y="191.38" width="9.72" height="9.72" fill="#0b2545"/>
<rect x="548.28" y="191.38" width="9.72" height="9.72" fill="#0b2545"/>
<rect x="558.62" y="191.38" width="9.72" height="9.72" fill="#0b2545"/>
<rect x="568.97" y="191.38" width="9.72" height="9.72" fill="#0b2545"/>
<rect x="589.66" y="191.38" width="9.72" height="9.72" fill="#0b2545"/>
<rect x="300.00" y="201.72" width="9.72" height="9.72" fill="#0b2545"/>
<rect x="362.07" y="201.72" width="9.72" height="9.72" fill="#0b2545"/>
<rect x="382.76" y="201.72" width="9.72" height="9.72" fill="#0b2545"/>
<rect x="424.14" y="201.72" width="9.72" height="9.72" fill="#0b2545"/>
<rect x="434.48" y="201.72" width="9.72" height="9.72" fill="#0b2545"/>
<rect x="444.83" y="201.72" width="9.72" height="9.72" fill="#0b2545"/>
<rect x="486.21" y="201.72" width="9.72" height="9.72" fill="#0b2545"/>
<rect x="527.59" y="201.72" width="9.72" height="9.72" fill="#0b2545"/>
<rect x="589.66" y="201.72" width="9.72" height="9.72" fill="#0b2545"/>
<rect x="300.00" y="212.07" width="9.72" height="9.72" fill="#0b2545"/>
<rect x="310.34" y="212.07" width="9.72" height="9.72" fill="#0b2545"/>
<rect x="320.69" y="212.07" width="9.72" height="9.72" fill="#0b2545"/>
<rect x="331.03" y="212.07" width="9.72" height="9.72" fill="#0b2545"/>
<rect x="341.38" y="212.07" width="9.72" height="9.72" fill="#0b2545"/>
<rect x="351.72" y="212.07" width="9.72" height="9.72" fill="#0b2545"/>
<rect x="362.07" y="212.07" width="9.72" height="9.72" fill="#0b2545"/>
<rect x="382.76" y="212.07" width="9.72" height="9.72" fill="#0b2545"/>
<rect x="403.45" y="212.07" width="9.72" height="9.72" fill="#0b2545"/>
<rect x="424.14" y="212.07" width="9.72" height="9.72" fill="#0b2545"/>
<rect x="444.83" y="212.07" width="9.72" height="9.72" fill="#0b2545"/>
<rect x="465.52" y="212.07" width="9.72" height="9.72" fill="#0b2545"/>
<rect x="486.21" y="212.07" width="9.72" height="9.72" fill="#0b2545"/>
<rect x="506.90" y="212.07" width="9.72" height="9.72" fill="#0b2545"/>
<rect x="527.59" y="212.07" width="9.72" height="9.72" fill="#0b2545"/>
<rect x="537.93" y="212.07" width="9.72" height="9.72" fill="#0b2545"/>
<rect x="548.28" y="212.07" width="9.72" height="9.72" fill="#0b2545"/>
<rect x="558.62" y="212.07" width="9.72" height="9.72" fill="#0b2545"/>
<rect x="568.97" y="212.07" width="9.72" height="9.72" fill="#0b2545"/>
<rect x="579.31" y="212.07" width="9.72" height="9.72" fill="#0b2545"/>
<rect x="589.66" y="212.07" width="9.72" height="9.72" fill="#0b2545"/>
<rect x="382.76" y="222.41" width="9.72" height="9.72" fill="#0b2545"/>
<rect x="393.10" y="222.41" width="9.72" height="9.72" fill="#0b2545"/>
<rect x="403.45" y="222.41" width="9.72" height="9.72" fill="#0b2545"/>
<rect x="413.79" y="222.41" width="9.72" height="9.72" fill="#0b2545"/>
<rect x="434.48" y="222.41" width="9.72" height="9.72" fill="#0b2545"/>
<rect x="320.69" y="232.76" width="9.72" height="9.72" fill="#0b2545"/>
<rect x="331.03" y="232.76" width="9.72" height="9.72" fill="#0b2545"/>
<rect x="341.38" y="232.76" width="9.72" height="9.72" fill="#0b2545"/>
<rect x="362.07" y="232.76" width="9.72" height="9.72" fill="#0b2545"/>
<rect x="382.76" y="232.76" width="9.72" height="9.72" fill="#0b2545"/>
<rect x="403.45" y="232.76" width="9.72" height="9.72" fill="#0b2545"/>
<rect x="424.14" y="232.76" width="9.72" height="9.72" fill="#0b2545"/>
<rect x="465.52" y="232.76" width="9.72" height="9.72" fill="#0b2545"/>
<rect x="486.21" y="232.76" width="9.72" height="9.72" fill="#0b2545"/>
<rect x="496.55" y="232.76" width="9.72" height="9.72" fill="#0b2545"/>
<rect x="506.90" y="232.76" width="9.72" height="9.72" fill="#0b2545"/>
<rect x="517.24" y="232.76" width="9.72" height="9.72" fill="#0b2545"/>
<rect x="527.59" y="232.76" width="9.72" height="9.72" fill="#0b2545"/>
<rect x="537.93" y="232.76" width="9.72" height="9.72" fill="#0b2545"/>
<rect x="568.97" y="232.76" width="9.72" height="9.72" fill="#0b2545"/>
<rect x="579.31" y="232.76" width="9.72" height="9.72" fill="#0b2545"/>
<rect x="589.66" y="232.76" width="9.72" height="9.72" fill="#0b2545"/>
<rect x="320.69" y="243.10" width="9.72" height="9.72" fill="#0b2545"/>
<rect x="341.38" y="243.10" width="9.72" height="9.72" fill="#0b2545"/>
<rect x="372.41" y="243.10" width="9.72" height="9.72" fill="#0b2545"/>
<rect x="424.14" y="243.10" width="9.72" height="9.72" fill="#0b2545"/>
<rect x="455.17" y="243.10" width="9.72" height="9.72" fill="#0b2545"/>
<rect x="548.28" y="243.10" width="9.72" height="9.72" fill="#0b2545"/>
<rect x="558.62" y="243.10" width="9.72" height="9.72" fill="#0b2545"/>
<rect x="568.97" y="243.10" width="9.72" height="9.72" fill="#0b2545"/>
<rect x="589.66" y="243.10" width="9.72" height="9.72" fill="#0b2545"/>
<rect x="300.00" y="253.45" width="9.72" height="9.72" fill="#0b2545"/>
<rect x="341.38" y="253.45" width="9.72" height="9.72" fill="#0b2545"/>
<rect x="362.07" y="253.45" width="9.72" height="9.72" fill="#0b2545"/>
<rect x="455.17" y="253.45" width="9.72" height="9.72" fill="#0b2545"/>
<rect x="475.86" y="253.45" width="9.72" height="9.72" fill="#0b2545"/>
<rect x="506.90" y="253.45" width="9.72" height="9.72" fill="#0b2545"/>
<rect x="517.24" y="253.45" width="9.72" height="9.72" fill="#0b2545"/>
<rect x="537.93" y="253.45" width="9.72" height="9.72" fill="#0b2545"/>
<rect x="548.28" y="253.45" width="9.72" height="9.72" fill="#0b2545"/>
<rect x="568.97" y="253.45" width="9.72" height="9.72" fill="#0b2545"/>
<rect x="300.00" y="263.79" width="9.72" height="9.72" fill="#0b2545"/>
<rect x="310.34" y="263.79" width="9.72" height="9.72" fill="#0b2545"/>
<rect x="320.69" y="263.79" width="9.72" height="9.72" fill="#0b2545"/>
<rect x="341.38" y="263.79" width="9.72" height="9.72" fill="#0b2545"/>
<rect x="351.72" y="263.79" width="9.72" height="9.72" fill="#0b2545"/>
<rect x="372.41" y="263.79" width="9.72" height="9.72" fill="#0b2545"/>
<rect x="382.76" y="263.79" width="9.72" height="9.72" fill="#0b2545"/>
<rect x="393.10" y="263.79" width="9.72" height="9.72" fill="#0b2545"/>
<rect x="413.79" y="263.79" width="9.72" height="9.72" fill="#0b2545"/>
<rect x="424.14" y="263.79" width="9.72" height="9.72" fill="#0b2545"/>
<rect x="434.48" y="263.79" width="9.72" height="9.72" fill="#0b2545"/>
<rect x="444.83" y="263.79" width="9.72" height="9.72" fill="#0b2545"/>
<rect x="455.17" y="263.79" width="9.72" height="9.72" fill="#0b2545"/>
<rect x="465.52" y="263.79" width="9.72" height="9.72" fill="#0b2545"/>
<rect x="548.28" y="263.79" width="9.72" height="9.72" fill="#0b2545"/>
<rect x="558.62" y="263.79" width="9.72" height="9.72" fill="#0b2545"/>
<rect x="579.31" y="263.79" width="9.72" height="9.72" fill="#0b2545"/>
<rect x="341.38" y="274.14" width="9.72" height="9.72" fill="#0b2545"/>
<rect x="362.07" y="274.14" width="9.72" height="9.72" fill="#0b2545"/>
<rect x="403.45" y="274.14" width="9.72" height="9.72" fill="#0b2545"/>
<rect x="413.79" y="274.14" width="9.72" height="9.72" fill="#0b2545"/>
<rect x="424.14" y="274.14" width="9.72" height="9.72" fill="#0b2545"/>
<rect x="434.48" y="274.14" width="9.72" height="9.72" fill="#0b2545"/>
<rect x="444.83" y="274.14" width="9.72" height="9.72" fill="#0b2545"/>
<rect x="455.17" y="274.14" width="9.72" height="9.72" fill="#0b2545"/>
<rect x="475.86" y="274.14" width="9.72" height="9.72" fill="#0b2545"/>
<rect x="486.21" y="274.14" width="9.72" height="9.72" fill="#0b2545"/>
<rect x="506.90" y="274.14" width="9.72" height="9.72" fill="#0b2545"/>
<rect x="568.97" y="274.14" width="9.72" height="9.72" fill="#0b2545"/>
<rect x="579.31" y="274.14" width="9.72" height="9.72" fill="#0b2545"/>
<rect x="310.34" y="284.48" width="9.72" height="9.72" fill="#0b2545"/>
<rect x="320.69" y="284.48" width="9.72" height="9.72" fill="#0b2545"/>
<rect x="331.03" y="284.48" width="9.72" height="9.72" fill="#0b2545"/>
<rect x="341.38" y="284.48" width="9.72" height="9.72" fill="#0b2545"/>
<rect x="351.72" y="284.48" width="9.72" height="9.72" fill="#0b2545"/>
<rect x="372.41" y="284.48" width="9.72" height="9.72" fill="#0b2545"/>
<rect x="413.79" y="284.48" width="9.72" height="9.72" fill="#0b2545"/>
<rect x="424.14" y="284.48" width="9.72" height="9.72" fill="#0b2545"/>
<rect x="434.48" y="284.48" width="9.72" height="9.72" fill="#0b2545"/>
<rect x="455.17" y="284.48" width="9.72" height="9.72" fill="#0b2545"/>
<rect x="486.21" y="284.48" width="9.72" height="9.72" fill="#0b2545"/>
<rect x="496.55" y="284.48" width="9.72" height="9.72" fill="#0b2545"/>
<rect x="506.90" y="284.48" width="9.72" height="9.72" fill="#0b2545"/>
<rect x="527.59" y="284.48" width="9.72" height="9.72" fill="#0b2545"/>
<rect x="537.93" y="284.48" width="9.72" height="9.72" fill="#0b2545"/>
<rect x="548.28" y="284.48" width="9.72" height="9.72" fill="#0b2545"/>
<rect x="568.97" y="284.48" width="9.72" height="9.72" fill="#0b2545"/>
<rect x="579.31" y="284.48" width="9.72" height="9.72" fill="#0b2545"/>
<rect x="589.66" y="284.48" width="9.72" height="9.72" fill="#0b2545"/>
<rect x="300.00" y="294.83" width="9.72" height="9.72" fill="#0b2545"/>
<rect x="351.72" y="294.83" width="9.72" height="9.72" fill="#0b2545"/>
<rect x="362.07" y="294.83" width="9.72" height="9.72" fill="#0b2545"/>
<rect x="372.41" y="294.83" width="9.72" height="9.72" fill="#0b2545"/>
<rect x="382.76" y="294.83" width="9.72" height="9.72" fill="#0b2545"/>
<rect x="403.45" y="294.83" width="9.72" height="9.72" fill="#0b2545"/>
<rect x="413.79" y="294.83" width="9.72" height="9.72" fill="#0b2545"/>
<rect x="424.14" y="294.83" width="9.72" height="9.72" fill="#0b2545"/>
<rect x="434.48" y="294.83" width="9.72" height="9.72" fill="#0b2545"/>
<rect x="455.17" y="294.83" width="9.72" height="9.72" fill="#0b2545"/>
<rect x="475.86" y="294.83" width="9.72" height="9.72" fill="#0b2545"/>
<rect x="506.90" y="294.83" width="9.72" height="9.72" fill="#0b2545"/>
<rect x="527.59" y="294.83" width="9.72" height="9.72" fill="#0b2545"/>
<rect x="548.28" y="294.83" width="9.72" height="9.72" fill="#0b2545"/>
<rect x="558.62" y="294.83" width="9.72" height="9.72" fill="#0b2545"/>
<rect x="300.00" y="305.17" width="9.72" height="9.72" fill="#0b2545"/>
<rect x="310.34" y="305.17" width="9.72" height="9.72" fill="#0b2545"/>
<rect x="320.69" y="305.17" width="9.72" height="9.72" fill="#0b2545"/>
<rect x="372.41" y="305.17" width="9.72" height="9.72" fill="#0b2545"/>
<rect x="382.76" y="305.17" width="9.72" height="9.72" fill="#0b2545"/>
<rect x="403.45" y="305.17" width="9.72" height="9.72" fill="#0b2545"/>
<rect x="444.83" y="305.17" width="9.72" height="9.72" fill="#0b2545"/>
<rect x="455.17" y="305.17" width="9.72" height="9.72" fill="#0b2545"/>
<rect x="465.52" y="305.17" width="9.72" height="9.72" fill="#0b2545"/>
<rect x="486.21" y="305.17" width="9.72" height="9.72" fill="#0b2545"/>
<rect x="506.90" y="305.17" width="9.72" height="9.72" fill="#0b2545"/>
<rect x="517.24" y="305.17" width="9.72" height="9.72" fill="#0b2545"/>
<rect x="527.59" y="305.17" width="9.72" height="9.72" fill="#0b2545"/>
<rect x="537.93" y="305.17" width="9.72" height="9.72" fill="#0b2545"/>
<rect x="548.28" y="305.17" width="9.72" height="9.72" fill="#0b2545"/>
<rect x="558.62" y="305.17" width="9.72" height="9.72" fill="#0b2545"/>
<rect x="300.00" y="315.52" width="9.72" height="9.72" fill="#0b2545"/>
<rect x="310.34" y="315.52" width="9.72" height="9.72" fill="#0b2545"/>
<rect x="320.69" y="315.52" width="9.72" height="9.72" fill="#0b2545"/>
<rect x="331.03" y="315.52" width="9.72" height="9.72" fill="#0b2545"/>
<rect x="341.38" y="315.52" width="9.72" height="9.72" fill="#0b2545"/>
<rect x="351.72" y="315.52" width="9.72" height="9.72" fill="#0b2545"/>
<rect x="362.07" y="315.52" width="9.72" height="9.72" fill="#0b2545"/>
<rect x="372.41" y="315.52" width="9.72" height="9.72" fill="#0b2545"/>
<rect x="382.76" y="315.52" width="9.72" height="9.72" fill="#0b2545"/>
<rect x="455.17" y="315.52" width="9.72" height="9.72" fill="#0b2545"/>
<rect x="527.59" y="315.52" width="9.72" height="9.72" fill="#0b2545"/>
<rect x="548.28" y="315.52" width="9.72" height="9.72" fill="#0b2545"/>
<rect x="558.62" y="315.52" width="9.72" height="9.72" fill="#0b2545"/>
<rect x="579.31" y="315.52" width="9.72" height="9.72" fill="#0b2545"/>
<rect x="300.00" y="325.86" width="9.72" height="9.72" fill="#0b2545"/>
<rect x="310.34" y="325.86" width="9.72" height="9.72" fill="#0b2545"/>
<rect x="331.03" y="325.86" width="9.72" height="9.72" fill="#0b2545"/>
<rect x="351.72" y="325.86" width="9.72" height="9.72" fill="#0b2545"/>
<rect x="393.10" y="325.86" width="9.72" height="9.72" fill="#0b2545"/>
<rect x="403.45" y="325.86" width="9.72" height="9.72" fill="#0b2545"/>
<rect x="413.79" y="325.86" width="9.72" height="9.72" fill="#0b2545"/>
<rect x="424.14" y="325.86" width="9.72" height="9.72" fill="#0b2545"/>
<rect x="455.17" y="325.86" width="9.72" height="9.72" fill="#0b2545"/>
<rect x="486.21" y="325.86" width="9.72" height="9.72" fill="#0b2545"/>
<rect x="506.90" y="325.86" width="9.72" height="9.72" fill="#0b2545"/>
<rect x="517.24" y="325.86" width="9.72" height="9.72" fill="#0b2545"/>
<rect x="537.93" y="325.86" width="9.72" height="9.72" fill="#0b2545"/>
<rect x="558.62" y="325.86" width="9.72" height="9.72" fill="#0b2545"/>
<rect x="300.00" y="336.21" width="9.72" height="9.72" fill="#0b2545"/>
<rect x="351.72" y="336.21" width="9.72" height="9.72" fill="#0b2545"/>
<rect x="362.07" y="336.21" width="9.72" height="9.72" fill="#0b2545"/>
<rect x="372.41" y="336.21" width="9.72" height="9.72" fill="#0b2545"/>
<rect x="382.76" y="336.21" width="9.72" height="9.72" fill="#0b2545"/>
<rect x="403.45" y="336.21" width="9.72" height="9.72" fill="#0b2545"/>
<rect x="424.14" y="336.21" width="9.72" height="9.72" fill="#0b2545"/>
<rect x="434.48" y="336.21" width="9.72" height="9.72" fill="#0b2545"/>
<rect x="455.17" y="336.21" width="9.72" height="9.72" fill="#0b2545"/>
<rect x="496.55" y="336.21" width="9.72" height="9.72" fill="#0b2545"/>
<rect x="558.62" y="336.21" width="9.72" height="9.72" fill="#0b2545"/>
<rect x="568.97" y="336.21" width="9.72" height="9.72" fill="#0b2545"/>
<rect x="300.00" y="346.55" width="9.72" height="9.72" fill="#0b2545"/>
<rect x="320.69" y="346.55" width="9.72" height="9.72" fill="#0b2545"/>
<rect x="331.03" y="346.55" width="9.72" height="9.72" fill="#0b2545"/>
<rect x="382.76" y="346.55" width="9.72" height="9.72" fill="#0b2545"/>
<rect x="434.48" y="346.55" width="9.72" height="9.72" fill="#0b2545"/>
<rect x="465.52" y="346.55" width="9.72" height="9.72" fill="#0b2545"/>
<rect x="486.21" y="346.55" width="9.72" height="9.72" fill="#0b2545"/>
<rect x="496.55" y="346.55" width="9.72" height="9.72" fill="#0b2545"/>
<rect x="506.90" y="346.55" width="9.72" height="9.72" fill="#0b2545"/>
<rect x="517.24" y="346.55" width="9.72" height="9.72" fill="#0b2545"/>
<rect x="537.93" y="346.55" width="9.72" height="9.72" fill="#0b2545"/>
<rect x="558.62" y="346.55" width="9.72" height="9.72" fill="#0b2545"/>
<rect x="579.31" y="346.55" width="9.72" height="9.72" fill="#0b2545"/>
<rect x="300.00" y="356.90" width="9.72" height="9.72" fill="#0b2545"/>
<rect x="341.38" y="356.90" width="9.72" height="9.72" fill="#0b2545"/>
<rect x="362.07" y="356.90" width="9.72" height="9.72" fill="#0b2545"/>
<rect x="372.41" y="356.90" width="9.72" height="9.72" fill="#0b2545"/>
<rect x="393.10" y="356.90" width="9.72" height="9.72" fill="#0b2545"/>
<rect x="403.45" y="356.90" width="9.72" height="9.72" fill="#0b2545"/>
<rect x="413.79" y="356.90" width="9.72" height="9.72" fill="#0b2545"/>
<rect x="434.48" y="356.90" width="9.72" height="9.72" fill="#0b2545"/>
<rect x="444.83" y="356.90" width="9.72" height="9.72" fill="#0b2545"/>
<rect x="455.17" y="356.90" width="9.72" height="9.72" fill="#0b2545"/>
<rect x="486.21" y="356.90" width="9.72" height="9.72" fill="#0b2545"/>
<rect x="496.55" y="356.90" width="9.72" height="9.72" fill="#0b2545"/>
<rect x="506.90" y="356.90" width="9.72" height="9.72" fill="#0b2545"/>
<rect x="517.24" y="356.90" width="9.72" height="9.72" fill="#0b2545"/>
<rect x="527.59" y="356.90" width="9.72" height="9.72" fill="#0b2545"/>
<rect x="537.93" y="356.90" width="9.72" height="9.72" fill="#0b2545"/>
<rect x="548.28" y="356.90" width="9.72" height="9.72" fill="#0b2545"/>
<rect x="568.97" y="356.90" width="9.72" height="9.72" fill="#0b2545"/>
<rect x="579.31" y="356.90" width="9.72" height="9.72" fill="#0b2545"/>
<rect x="382.76" y="367.24" width="9.72" height="9.72" fill="#0b2545"/>
<rect x="403.45" y="367.24" width="9.72" height="9.72" fill="#0b2545"/>
<rect x="424.14" y="367.24" width="9.72" height="9.72" fill="#0b2545"/>
<rect x="444.83" y="367.24" width="9.72" height="9.72" fill="#0b2545"/>
<rect x="455.17" y="367.24" width="9.72" height="9.72" fill="#0b2545"/>
<rect x="475.86" y="367.24" width="9.72" height="9.72" fill="#0b2545"/>
<rect x="486.21" y="367.24" width="9.72" height="9.72" fill="#0b2545"/>
<rect x="506.90" y="367.24" width="9.72" height="9.72" fill="#0b2545"/>
<rect x="548.28" y="367.24" width="9.72" height="9.72" fill="#0b2545"/>
<rect x="579.31" y="367.24" width="9.72" height="9.72" fill="#0b2545"/>
<rect x="589.66" y="367.24" width="9.72" height="9.72" fill="#0b2545"/>
<rect x="300.00" y="377.59" width="9.72" height="9.72" fill="#0b2545"/>
<rect x="310.34" y="377.59" width="9.72" height="9.72" fill="#0b2545"/>
<rect x="320.69" y="377.59" width="9.72" height="9.72" fill="#0b2545"/>
<rect x="331.03" y="377.59" width="9.72" height="9.72" fill="#0b2545"/>
<rect x="341.38" y="377.59" width="9.72" height="9.72" fill="#0b2545"/>
<rect x="351.72" y="377.59" width="9.72" height="9.72" fill="#0b2545"/>
<rect x="362.07" y="377.59" width="9.72" height="9.72" fill="#0b2545"/>
<rect x="393.10" y="377.59" width="9.72" height="9.72" fill="#0b2545"/>
<rect x="403.45" y="377.59" width="9.72" height="9.72" fill="#0b2545"/>
<rect x="434.48" y="377.59" width="9.72" height="9.72" fill="#0b2545"/>
<rect x="506.90" y="377.59" width="9.72" height="9.72" fill="#0b2545"/>
<rect x="527.59" y="377.59" width="9.72" height="9.72" fill="#0b2545"/>
<rect x="548.28" y="377.59" width="9.72" height="9.72" fill="#0b2545"/>
<rect x="558.62" y="377.59" width="9.72" height="9.72" fill="#0b2545"/>
<rect x="300.00" y="387.93" width="9.72" height="9.72" fill="#0b2545"/>
<rect x="362.07" y="387.93" width="9.72" height="9.72" fill="#0b2545"/>
<rect x="413.79" y="387.93" width="9.72" height="9.72" fill="#0b2545"/>
<rect x="424.14" y="387.93" width="9.72" height="9.72" fill="#0b2545"/>
<rect x="455.17" y="387.93" width="9.72" height="9.72" fill="#0b2545"/>
<rect x="475.86" y="387.93" width="9.72" height="9.72" fill="#0b2545"/>
<rect x="486.21" y="387.93" width="9.72" height="9.72" fill="#0b2545"/>
<rect x="496.55" y="387.93" width="9.72" height="9.72" fill="#0b2545"/>
<rect x="506.90" y="387.93" width="9.72" height="9.72" fill="#0b2545"/>
<rect x="548.28" y="387.93" width="9.72" height="9.72" fill="#0b2545"/>
<rect x="558.62" y="387.93" width="9.72" height="9.72" fill="#0b2545"/>
<rect x="579.31" y="387.93" width="9.72" height="9.72" fill="#0b2545"/>
<rect x="300.00" y="398.28" width="9.72" height="9.72" fill="#0b2545"/>
<rect x="320.69" y="398.28" width="9.72" height="9.72" fill="#0b2545"/>
<rect x="331.03" y="398.28" width="9.72" height="9.72" fill="#0b2545"/>
<rect x="341.38" y="398.28" width="9.72" height="9.72" fill="#0b2545"/>
<rect x="362.07" y="398.28" width="9.72" height="9.72" fill="#0b2545"/>
<rect x="382.76" y="398.28" width="9.72" height="9.72" fill="#0b2545"/>
<rect x="403.45" y="398.28" width="9.72" height="9.72" fill="#0b2545"/>
<rect x="434.48" y="398.28" width="9.72" height="9.72" fill="#0b2545"/>
<rect x="444.83" y="398.28" width="9.72" height="9.72" fill="#0b2545"/>
<rect x="475.86" y="398.28" width="9.72" height="9.72" fill="#0b2545"/>
<rect x="486.21" y="398.28" width="9.72" height="9.72" fill="#0b2545"/>
<rect x="506.90" y="398.28" width="9.72" height="9.72" fill="#0b2545"/>
<rect x="517.24" y="398.28" width="9.72" height="9.72" fill="#0b2545"/>
<rect x="527.59" y="398.28" width="9.72" height="9.72" fill="#0b2545"/>
<rect x="537.93" y="398.28" width="9.72" height="9.72" fill="#0b2545"/>
<rect x="548.28" y="398.28" width="9.72" height="9.72" fill="#0b2545"/>
<rect x="558.62" y="398.28" width="9.72" height="9.72" fill="#0b2545"/>
<rect x="579.31" y="398.28" width="9.72" height="9.72" fill="#0b2545"/>
<rect x="589.66" y="398.28" width="9.72" height="9.72" fill="#0b2545"/>
<rect x="300.00" y="408.62" width="9.72" height="9.72" fill="#0b2545"/>
<rect x="320.69" y="408.62" width="9.72" height="9.72" fill="#0b2545"/>
<rect x="331.03" y="408.62" width="9.72" height="9.72" fill="#0b2545"/>
<rect x="341.38" y="408.62" width="9.72" height="9.72" fill="#0b2545"/>
<rect x="362.07" y="408.62" width="9.72" height="9.72" fill="#0b2545"/>
<rect x="382.76" y="408.62" width="9.72" height="9.72" fill="#0b2545"/>
<rect x="403.45" y="408.62" width="9.72" height="9.72" fill="#0b2545"/>
<rect x="413.79" y="408.62" width="9.72" height="9.72" fill="#0b2545"/>
<rect x="424.14" y="408.62" width="9.72" height="9.72" fill="#0b2545"/>
<rect x="434.48" y="408.62" width="9.72" height="9.72" fill="#0b2545"/>
<rect x="444.83" y="408.62" width="9.72" height="9.72" fill="#0b2545"/>
<rect x="465.52" y="408.62" width="9.72" height="9.72" fill="#0b2545"/>
<rect x="475.86" y="408.62" width="9.72" height="9.72" fill="#0b2545"/>
<rect x="486.21" y="408.62" width="9.72" height="9.72" fill="#0b2545"/>
<rect x="496.55" y="408.62" width="9.72" height="9.72" fill="#0b2545"/>
<rect x="548.28" y="408.62" width="9.72" height="9.72" fill="#0b2545"/>
<rect x="558.62" y="408.62" width="9.72" height="9.72" fill="#0b2545"/>
<rect x="300.00" y="418.97" width="9.72" height="9.72" fill="#0b2545"/>
<rect x="320.69" y="418.97" width="9.72" height="9.72" fill="#0b2545"/>
<rect x="331.03" y="418.97" width="9.72" height="9.72" fill="#0b2545"/>
<rect x="341.38" y="418.97" width="9.72" height="9.72" fill="#0b2545"/>
<rect x="362.07" y="418.97" width="9.72" height="9.72" fill="#0b2545"/>
<rect x="382.76" y="418.97" width="9.72" height="9.72" fill="#0b2545"/>
<rect x="393.10" y="418.97" width="9.72" height="9.72" fill="#0b2545"/>
<rect x="403.45" y="418.97" width="9.72" height="9.72" fill="#0b2545"/>
<rect x="413.79" y="418.97" width="9.72" height="9.72" fill="#0b2545"/>
<rect x="517.24" y="418.97" width="9.72" height="9.72" fill="#0b2545"/>
<rect x="527.59" y="418.97" width="9.72" height="9.72" fill="#0b2545"/>
<rect x="537.93" y="418.97" width="9.72" height="9.72" fill="#0b2545"/>
<rect x="548.28" y="418.97" width="9.72" height="9.72" fill="#0b2545"/>
<rect x="558.62" y="418.97" width="9.72" height="9.72" fill="#0b2545"/>
<rect x="579.31" y="418.97" width="9.72" height="9.72" fill="#0b2545"/>
<rect x="300.00" y="429.31" width="9.72" height="9.72" fill="#0b2545"/>
<rect x="362.07" y="429.31" width="9.72" height="9.72" fill="#0b2545"/>
<rect x="393.10" y="429.31" width="9.72" height="9.72" fill="#0b2545"/>
<rect x="424.14" y="429.31" width="9.72" height="9.72" fill="#0b2545"/>
<rect x="434.48" y="429.31" width="9.72" height="9.72" fill="#0b2545"/>
<rect x="444.83" y="429.31" width="9.72" height="9.72" fill="#0b2545"/>
<rect x="455.17" y="429.31" width="9.72" height="9.72" fill="#0b2545"/>
<rect x="496.55" y="429.31" width="9.72" height="9.72" fill="#0b2545"/>
<rect x="517.24" y="429.31" width="9.72" height="9.72" fill="#0b2545"/>
<rect x="579.31" y="429.31" width="9.72" height="9.72" fill="#0b2545"/>
<rect x="300.00" y="439.66" width="9.72" height="9.72" fill="#0b2545"/>
<rect x="310.34" y="439.66" width="9.72" height="9.72" fill="#0b2545"/>
<rect x="320.69" y="439.66" width="9.72" height="9.72" fill="#0b2545"/>
<rect x="331.03" y="439.66" width="9.72" height="9.72" fill="#0b2545"/>
<rect x="341.38" y="439.66" width="9.72" height="9.72" fill="#0b2545"/>
<rect x="351.72" y="439.66" width="9.72" height="9.72" fill="#0b2545"/>
<rect x="362.07" y="439.66" width="9.72" height="9.72" fill="#0b2545"/>
<rect x="403.45" y="439.66" width="9.72" height="9.72" fill="#0b2545"/>
<rect x="413.79" y="439.66" width="9.72" height="9.72" fill="#0b2545"/>
<rect x="424.14" y="439.66" width="9.72" height="9.72" fill="#0b2545"/>
<rect x="434.48" y="439.66" width="9.72" height="9.72" fill="#0b2545"/>
<rect x="475.86" y="439.66" width="9.72" height="9.72" fill="#0b2545"/>
<rect x="548.28" y="439.66" width="9.72" height="9.72" fill="#0b2545"/>
  </g>

  <path d="
    M 130 110.0
    L 560 110.0
    L 560 30.0
    L 800 300
    L 560 570.0
    L 560 490.0
    L 130 490.0
    Q 176.0 300 130 110.0
    Z
    " fill="none" stroke="#0b2545" stroke-width="15" stroke-linejoin="round"/>
</svg>